<?xml version="1.0" encoding="utf-8"?>
<!-- Generator: Adobe Illustrator 21.0.2, SVG Export Plug-In . SVG Version: 6.00 Build 0)  -->
<svg version="1.1" id="Layer_1" xmlns="http://www.w3.org/2000/svg" xmlns:xlink="http://www.w3.org/1999/xlink" x="0px" y="0px"
	 viewBox="0 0 512 512" style="enable-background:new 0 0 512 512;" xml:space="preserve">
<style type="text/css">
	.st0{fill:url(#SVGID_1_);}
	.st1{fill:#FFFFFF;}
</style>
<title>pbx</title>
<linearGradient id="SVGID_1_" gradientUnits="userSpaceOnUse" x1="256" y1="0" x2="256" y2="512">
	<stop  offset="0" style="stop-color:#00FF5F"/>
	<stop  offset="1" style="stop-color:#1E3C3C"/>
	<stop  offset="1" style="stop-color:#2B2728"/>
</linearGradient>
<circle class="st0" cx="256" cy="256" r="256"/>
<path class="st1" d="M-176.8-108.4c-4.5-4.6-9.4-8.9-14.6-12.7c-1.4-1.1-2.9-2.1-4.3-3.1c-5.5-3.9-11.3-7.3-17.3-10.2
	c-1.9-0.9-3.8-1.8-5.8-2.6s-3.9-1.6-5.9-2.3c-1.7-0.7-3.4-1.3-5.1-1.8c-0.3-0.1-0.6-0.2-1-0.3c-1.1-0.3-2.2-0.7-3.3-1l-3.2-0.9
	c-1.9-0.5-3.7-0.9-5.6-1.3l-2.9-0.6c-1.5-0.3-3-0.6-4.4-0.8c-1.9-0.3-3.8-0.6-5.8-0.8c-1.4-0.2-2.8-0.3-4.2-0.4
	c-0.7,0-1.4-0.1-2-0.1c-1.1-0.1-2.1-0.1-3.2-0.1h-1.4c-0.5-0.1-0.9-0.1-1.4-0.1h-4.3c-1.8,0-3.5,0.1-5.3,0.2c-1.8,0-3.6,0.2-5.4,0.4
	c-0.6,0-1.2,0.1-1.7,0.1c-2,0.2-4,0.5-5.9,0.8h-0.4c-2,0.3-3.9,0.6-5.9,1.1c-0.2,0-0.5,0-0.7,0.1c-1.2,0.2-2.5,0.5-3.7,0.8
	c-1.2,0.2-2.4,0.5-3.6,0.9l-1,0.3c-1.8,0.5-3.5,1-5.3,1.6c-0.1,0-0.2,0-0.3,0.1c-2,0.6-3.9,1.3-5.9,2c-14.2,5.3-27.3,13-38.8,22.8
	c-1.5,1.2-2.9,2.5-4.3,3.7c-1.6,1.5-3.1,2.9-4.6,4.4s-3,3.1-4.4,4.6c-2.8,3.2-5.5,6.4-8,9.8c-1.3,1.7-2.5,3.4-3.6,5.2
	c-1.1,1.6-2.2,3.2-3.2,4.9s-2.2,3.7-3.2,5.6c-1,1.7-1.9,3.5-2.8,5.3c-1.3,2.6-2.5,5.3-3.5,8c-0.6,1.5-1.3,3.1-1.8,4.6
	c-3,8.1-5.1,16.5-6.4,25.1c-0.2,1.6-0.5,3.2-0.6,4.8c-0.6,5.1-0.9,10.3-0.9,15.4l0,0c0,5.1,0.3,10.3,0.9,15.4
	c0.1,1.6,0.4,3.2,0.6,4.8c1.7,11.1,4.8,21.8,9.2,32.1c0.7,1.7,1.5,3.4,2.3,5.1c0.9,1.9,1.9,3.8,3,5.7c1,1.9,2.1,3.7,3.2,5.6
	c1,1.6,2,3.3,3.2,4.9c1.2,1.8,2.4,3.5,3.6,5.2c2.5,3.4,5.2,6.7,8,9.8c1.4,1.6,2.9,3.1,4.4,4.6s3,3,4.6,4.4c1.4,1.3,2.8,2.5,4.3,3.7
	c5.6,4.8,11.6,9.1,18,12.8c1.4,0.9,2.8,1.7,4.3,2.5l5.7,3c4.2,2,8.6,3.9,13,5.4c1.6,0.6,3.3,1.2,5,1.7c2,0.6,4.1,1.2,6.2,1.8
	c0.2,0,0.3,0,0.5,0.1c1.9,0.5,3.9,0.9,5.8,1.3c0.2,0.1,0.5,0.1,0.7,0.1c2,0.4,3.9,0.8,5.9,1.1h0.4c1.9,0.3,3.9,0.6,5.9,0.8
	c0.6,0,1.2,0.1,1.7,0.1c1.8,0.2,3.6,0.3,5.4,0.4s3.4,0.1,5.2,0.1c0.5,0.1,1.1,0.1,1.6,0.1h1.1c0.5,0,1.1,0,1.6-0.1h2.9
	c1,0,2,0,3.1-0.1c2-0.1,4.1-0.3,6.2-0.5c1.9-0.2,3.9-0.4,5.9-0.8c1.6-0.2,3.3-0.5,4.9-0.9c2.7-0.5,5.3-1.1,7.9-1.7
	c1.6-0.4,3.1-0.9,4.6-1.3c13.3-4,25.9-10,37.3-17.9c1.5-1,2.9-2,4.3-3.1c5.2-3.8,10.1-8.1,14.6-12.7
	C-125.3,26.8-125.4-56.7-176.8-108.4z M-250.9-135.5c3.9,0.7,7.8,1.5,11.7,2.6c1.9,0.5,3.8,1.1,5.7,1.7s3.8,1.3,5.6,2
	c5.8,2.2,11.4,4.8,16.7,7.9c1.5,0.8,2.9,1.6,4.3,2.6c9.9,6.2,18.9,13.7,26.7,22.4c2.6,2.9,5.1,5.9,7.4,9.1c1.2,1.6,2.3,3.2,3.4,4.8
	c2.1,3.2,4.2,6.6,6,10c2.8,5.2,5.2,10.6,7.2,16.1c1.3,3.4,2.3,6.9,3.2,10.4c0.6,2.2,1.2,4.5,1.6,6.7c0.3,1.3,0.5,2.6,0.7,3.9
	c0.8,5.1,1.4,10.2,1.6,15.3h-54.7c-1.2-42.8-18.7-83.6-49.1-113.8l-2.1-2.1C-253.6-136-252.2-135.8-250.9-135.5z M-260.1,96.6
	c-3.3,3.3-6.8,6.5-10.3,9.5c-3.6-3-7.1-6.2-10.4-9.5c-28.4-28.3-44.8-66.4-46-106.4H-214C-215.2,30.3-231.7,68.3-260.1,96.6z
	 M-326.9-20.2c1.2-40,17.6-78.1,46-106.4c3.3-3.3,6.8-6.5,10.4-9.5c3.6,3,7,6.2,10.4,9.5c28.4,28.3,44.8,66.4,46,106.4L-326.9-20.2
	L-326.9-20.2z M-383.7-62.3c0.6-1.5,1.3-3,2-4.5c3.5-7.5,7.8-14.7,12.8-21.3c1.2-1.6,2.4-3.1,3.6-4.6c2.5-3,5.1-5.9,7.9-8.7
	c1.4-1.4,2.8-2.8,4.3-4.1c1.4-1.3,2.9-2.6,4.4-3.8c1.5-1.3,3.1-2.5,4.6-3.6s3.2-2.3,4.8-3.4s3.2-2.2,4.9-3.2l5.1-3
	c1.7-0.9,3.5-1.8,5.2-2.7c1.7-0.9,3.6-1.7,5.4-2.5c4.3-1.8,8.8-3.4,13.3-4.7c1.2-0.4,2.4-0.8,3.7-1.1c1.9-0.5,3.9-1,5.9-1.4
	s4-0.8,6-1.1c1.2-0.2,2.4-0.4,3.7-0.5c-0.8,0.7-1.6,1.5-2.3,2.2c-30.3,30.3-47.9,71-49.1,113.8H-393
	C-392.4-34.9-389.2-49-383.7-62.3L-383.7-62.3z M-301.5,103.4c-1.3-0.3-2.5-0.6-3.7-1.1c-0.9-0.2-1.8-0.4-2.7-0.8
	c-1.9-0.6-3.8-1.2-5.6-1.9s-3.3-1.3-5-2c-1.3-0.5-2.6-1.1-3.9-1.7c-22.2-10.4-40.8-27.2-53.5-48.2c-0.9-1.5-1.8-3.1-2.6-4.6
	c-1.1-2-2.1-4.1-3.1-6.2c-0.7-1.5-1.4-3-2-4.5c-5.6-13.4-8.8-27.6-9.3-42.1h55.7c1.2,42.8,18.7,83.6,49.1,113.8
	c0.8,0.8,1.6,1.6,2.3,2.2c-1.5-0.1-2.9-0.3-4.4-0.6C-294.2,105.1-297.9,104.3-301.5,103.4L-301.5,103.4z M-151.3,9.4
	c-0.4,2.2-1,4.5-1.6,6.7c-0.9,3.5-2,7-3.2,10.4c-2,5.5-4.4,10.9-7.2,16.1c-0.8,1.5-1.6,2.9-2.5,4.4c-0.1,0.3-0.3,0.7-0.5,1
	c-1.7,2.8-3.5,5.6-5.5,8.2c-10.6,14.8-24.4,27.1-40.4,35.9c-3.2,1.7-6.5,3.4-9.8,4.8c-7.3,3.2-15,5.7-22.8,7.4
	c-1.9,0.4-3.9,0.8-5.9,1.2l-2.1,0.3c-0.6,0.1-1.3,0.2-1.9,0.2c0.7-0.6,1.4-1.3,2.1-2c30.3-30.3,47.9-71,49.1-113.8h54.5
	c-0.2,5.1-0.7,10.2-1.6,15.3C-150.7,6.8-151,8.1-151.3,9.4L-151.3,9.4z"/>
<path class="st1" d="M377.9,318.1l-40.5-40.5c-8.5-8.4-22.1-8.4-30.6,0l-26.1,26.1l-71.8-71.8l26.1-26.1c8.4-8.4,8.4-22.1,0-30.5
	l-41.2-41.2c-8.5-8.4-22.1-8.4-30.6,0L145,152.3c-13.1,13.1-18.9,29.1-16.8,46.3c1.9,15.7,10.1,31.3,23.8,45l116.3,116.3
	c15.6,15.6,34,24.2,51.7,24.2l0,0c14.6,0,28.3-6,39.6-17.2l18.3-18.3c8.4-8.3,8.5-21.9,0.2-30.3C378,318.3,377.9,318.2,377.9,318.1z
	 M370,340.7L351.7,359c-9.2,9.2-19.9,13.9-31.7,13.9c-14.7,0-30.2-7.4-43.7-20.9L159.9,235.6c-19-19-32.3-50.2-7-75.4l18.3-18.3
	c4-4,10.6-4,14.6,0l41.2,41.2c4,4,4,10.6,0,14.6l-30,30.2c-1.1,1.1-1.6,2.5-1.6,4c0,1.5,0.6,2.9,1.6,4l79.8,79.8
	c1.1,1.1,2.5,1.6,4,1.6c1.5,0,2.9-0.6,4-1.6l30.1-30.1c1.9-1.9,4.6-3,7.3-3c2.7,0,5.4,1.1,7.3,3l40.5,40.5
	C374,330.2,374,336.7,370,340.7z"/>
</svg>
