<?xml version="1.0" encoding="utf-8"?>
<!-- Generator: Adobe Illustrator 24.0.0, SVG Export Plug-In . SVG Version: 6.00 Build 0)  -->
<svg version="1.1" id="Camada_1" xmlns="http://www.w3.org/2000/svg" xmlns:xlink="http://www.w3.org/1999/xlink" x="0px" y="0px"
	 viewBox="0 0 7049 1138" style="enable-background:new 0 0 7049 1138;" xml:space="preserve">
<style type="text/css">
	.st0{enable-background:new    ;}
</style>
<g>
	<path d="M870.3,1018.6c-5.9,0.8-11.9,1.4-18.1,1.8c-19.9,1.2-41.4-0.1-64.4-3.7c-24.9-3.9-51.6-10.7-80-20.2
		c-11.6-3.9-23.2-8.1-34.7-12.6c-19.2-7.6-38.2-16.1-57.2-25.7c-19.2-9.6-38.4-20.3-57.4-31.9C493.1,886.4,429,835,365.8,771.8
		C304.1,710,253.5,647.3,214.1,583.3c-12.6-20.4-24.1-41-34.4-61.7c-9.5-19-18-38-25.6-57.1c-4.6-11.5-8.8-23.1-12.6-34.7
		c-9.5-28.5-16.2-55.2-20.1-80c-3.6-23.1-4.9-44.5-3.7-64.4c0.3-6.2,0.9-12.2,1.8-18.1c3.1-53-20.7-29.1-71.5,71.5
		c-32,71-48,148.5-48,232.6C0,723,51.9,853,155.7,961.6c3.4,3.5,6.8,6.9,10.3,10.4s6.9,6.9,10.4,10.3C285,1086,415,1138,566.6,1138
		c84.1,0,161.7-16,232.5-48C898.7,1040.1,922.6,1016.2,870.3,1018.6"/>
	<path d="M778.7,571.6c0-58.7-20.8-108.7-62.3-150.2s-91.5-62.3-150.2-62.4l0,0c-30,0-57.8,5.5-83.2,16.3
		c-24.4,10.4-46.7,25.7-67,46c-41.5,41.5-62.3,91.5-62.3,150.2s20.8,108.8,62.3,150.3s91.5,62.3,150.2,62.2
		c58.7,0,108.7-20.7,150.2-62.2C757.9,680.4,778.7,630.3,778.7,571.6z"/>
	<path d="M491.2,257.3c-9.6-9.6-15.6-22.9-15.6-37.6c0-29.4,23.8-53.1,53.2-53.1c121.6,0,226.9,43.7,313,129.7
		s129.6,191.2,129.6,313c0,29.4-23.8,53.1-53.1,53.1c-29.4,0-53.1-23.8-53.1-53.1c0-93.7-32.3-171.5-98.5-237.8
		C700.3,305.2,622.6,273,528.8,273C514,272.9,500.7,266.9,491.2,257.3z M1047.3,621.7c-9.6-9.6-15.6-22.9-15.6-37.6
		c0-133.2-45.8-243.7-140-337.9s-204.8-140-338-140c-29.4,0-53.1-23.8-53.1-53.2s23.8-53.1,53.2-53.1
		c160.6,0,299.6,57.6,413.1,171.2S1138,423.7,1138,584.2c0,29.4-23.8,53.1-53.1,53.1C1070.1,637.3,1056.9,631.3,1047.3,621.7z"/>
</g>
<g class="st0">
	<path d="M1728.1,725.9c0,28.7-22.8,51.6-51.6,51.6c-35.5,0-70.2-17.8-92.2-45.7c-25.4-33-23.7-70.2-23.7-109.9V369.1
		c0-60.9,0-121.8,0-182.6c0-27.9,22.8-50.7,50.7-50.7c28.7,0,51.6,22.8,51.6,50.7v459.1c0,2.5-0.8,5.1-0.8,7.6s0.8,5.1,0.8,7.6
		c0,7.6,5.9,14.4,13.5,14.4C1705.2,675.2,1728.1,698,1728.1,725.9z"/>
	<path d="M1844.8,281.2c-29.6,0-53.3-23.7-53.3-51.6v-4.2c0-29.6,23.7-52.4,53.3-52.4c27.9,0,51.6,22.8,51.6,52.4v4.2
		C1896.3,257.5,1872.7,281.2,1844.8,281.2z M1844.8,777.5c-29.6,0-53.3-23.7-53.3-52.4V398.7c0-28.7,23.7-51.6,53.3-51.6
		c27.9,0,51.6,22.8,51.6,51.6v326.4C1896.3,753.8,1872.7,777.5,1844.8,777.5z"/>
	<path d="M2391,400.4v383c0,120.1-97.2,218.1-217.3,218.1c-63.4,0-123.4-27.1-164.9-75.3c-17.8-22-16.1-55,5.9-72.7
		c21.1-19.4,54.1-16.9,72.7,5.1c21.1,25.4,53.3,38.9,86.2,38.9c63.4,0,114.1-50.7,114.1-114.1v-37.2
		c-31.3,18.6-68.5,29.6-107.4,29.6c-116.7,0-212.2-94.7-212.2-211.4S2063.6,353,2180.3,353c39.7,0,77.8,11,109.9,31.3
		c7.6-20.3,26.2-35.5,49-35.5C2368.1,348.8,2391,372.5,2391,400.4z M2287.8,564.4c0-60-48.2-108.2-107.4-108.2
		c-60,0-108.2,48.2-108.2,108.2c0,59.2,48.2,108.2,108.2,108.2C2239.6,672.6,2287.8,623.6,2287.8,564.4z"/>
	<path d="M2673.4,780c-109.9,0-200.4-95.5-200.4-212.2V406.3c0-27.9,21.1-50.7,47.3-50.7c27.1,0,53.3,22.8,53.3,50.7v161.5
		c0,60.9,50.7,109.9,99.8,109.9c57.5,0,100.6-49,100.6-109.9V413.1c0-28.7,29.6-50.7,52.4-50.7c26.2,0,48.2,22,48.2,50.7v154.7
		C2874.6,684.5,2784.1,780,2673.4,780z"/>
	<path d="M3285.5,594h-260.4c11.8,48.2,55,85.4,107.4,85.4c27.1,0,66.8-11,88.8-32.1c20.3-19.4,52.4-19.4,71.9,0.8
		c20.3,19.4,19.4,52.4-0.8,71.9c-46.5,44.8-111.6,60-159.8,60c-117.5,0-211.4-94.7-211.4-212.2c0-115.8,93.9-212.2,211.4-212.2
		c12.7,0,24.5,0.8,37.2,3.4c57.5,11,106.5,46.5,137,97.2c13.5,23.7,28.7,55,27.1,82.9c0,7.6-3.4,16.1-6.8,24.5
		C3320.2,579.6,3305.8,594,3285.5,594z M3039.5,508.6h179.3c-16.9-32.1-48.2-50.7-86.2-50.7C3093.6,457.9,3059.8,477.3,3039.5,508.6
		z"/>
	<path d="M3531.6,779.2c-54.1,0-108.2-22-136.1-48.2c-20.3-18.6-22-50.7-2.5-71c18.6-21.1,50.7-22,71-3.4
		c15.2,14.4,71.9,33.8,104,12.7c8.5-5.1,13.5-14.4,13.5-23.7c0-11.8-10.1-20.3-18.6-23.7c-7.6-4.2-21.1-4.2-36.4-4.2
		c-20.3,0-43.1-0.8-66.8-9.3c-44-14.4-79.5-60-82.9-104c-4.2-53.3,18.6-86.2,38-104.8c42.3-38.9,104-44.8,148.8-37.2
		c33.8,5.9,59.2,17.8,80.3,37.2c20.3,18.6,22,50.7,3.4,71c-11,11.8-27.1,17.8-43.1,16.1c-7.6-0.8-15.2-3.4-22-7.6
		c-11.8-8.5-20.3-14.4-35.5-16.9c-25.4-4.2-72.7-2.5-69.3,33.8c0.8,4.2,8.5,15.2,15.2,17.8c8.5,2.5,21.1,2.5,34.7,2.5
		c22,0.8,49.9,0.8,77.8,13.5c46.5,21.1,76.9,66.8,76.9,115.8c0,43.1-22,83.7-58.3,108.2C3595,772.4,3563.7,779.2,3531.6,779.2z"/>
	<path d="M4082.8,594h-260.4c11.8,48.2,55,85.4,107.4,85.4c27.1,0,66.8-11,88.8-32.1c20.3-19.4,52.4-19.4,71.9,0.8
		c20.3,19.4,19.4,52.4-0.8,71.9c-46.5,44.8-111.6,60-159.8,60c-117.5,0-211.4-94.7-211.4-212.2c0-115.8,93.9-212.2,211.4-212.2
		c12.7,0,24.5,0.8,37.2,3.4c57.5,11,106.5,46.5,137,97.2c13.5,23.7,28.7,55,27.1,82.9c0,7.6-3.4,16.1-6.8,24.5
		C4117.5,579.6,4103.1,594,4082.8,594z M3836.8,508.6H4016c-16.9-32.1-48.2-50.7-86.2-50.7C3890.9,457.9,3857.1,477.3,3836.8,508.6z
		"/>
	<path d="M4744,518.7c0,1.7,0,2.5,0,3.4v204.6c0,28.7-22,50.7-49.9,50.7s-51.6-22-51.6-50.7V522.1v-3.4c0-0.8,0-1.7,0-2.5
		c0-33-29.6-58.3-64.3-58.3c-37.2,0-66.8,25.4-66.8,58.3v2.5c0,1.7,0,2.5,0,3.4v204.6c0,28.7-22.8,50.7-49.9,50.7
		c-28.7,0-50.7-22-50.7-50.7V522.1v-3.4c0-0.8,0-1.7,0-2.5c0-33-29.6-58.3-66-58.3s-66,25.4-66,58.3v213.1c0,27.1-22,49.9-50.7,49.9
		c-27.1,0-50.7-22.8-50.7-49.9v-323c0-27.9,23.7-51.6,50.7-51.6c16.1,0,31.3,8.5,38.9,20.3c23.7-11.8,49.9-18.6,77.8-18.6
		c44.8,0,85.4,16.9,116.7,45.7c29.6-28.7,70.2-45.7,116.7-45.7c90.5,0,165.7,71.9,165.7,159.8L4744,518.7L4744,518.7z"/>
	<path d="M5255.6,566.9c0,118.4-96.4,213.9-213.9,213.9c-44,0-84.6-13.5-119.2-35.5v197.9c0,28.7-22.8,51.6-50.7,51.6
		c-28.7,0-51.6-22.8-51.6-51.6V405.4c0-27.9,22.8-50.7,51.6-50.7c22.8,0,42.3,15.2,49,35.5c33.8-23.7,76.1-37.2,120.9-37.2
		C5159.2,353,5255.6,448.6,5255.6,566.9z M5153.2,566.9c0-61.7-50.7-111.6-111.6-111.6c-61.7,0-111.6,49.9-111.6,111.6
		s49.9,111.6,111.6,111.6C5102.5,678.5,5153.2,628.7,5153.2,566.9z"/>
	<path d="M5721.4,402.9v323.8c0,26.2-21.1,48.2-49,48.2s-44.8-22-44.8-48.2v-10.1c-36.4,31.3-78.6,49.9-129.4,49.9
		c-113.3,0-204.6-91.3-204.6-203.8s91.3-204.6,204.6-204.6c50.7,0,93,19.4,129.4,49v-4.2c0-26.2,16.9-48.2,44.8-48.2
		S5721.4,376.7,5721.4,402.9z M5603.9,562.7c0-58.3-48.2-105.7-105.7-105.7c-58.3,0-106.5,47.3-106.5,105.7s48.2,104.8,106.5,104.8
		C5555.7,667.6,5603.9,621.1,5603.9,562.7z"/>
	<path d="M6149.3,483.2c-19.4,20.3-50.7,22-71.9,2.5c-18.6-17.8-44-27.9-70.2-27.9c-57.5,0-104.8,49-104.8,109.1v159.8
		c0,27.9-22.8,50.7-50.7,50.7s-50.7-22.8-50.7-50.7V402.9c0-27.9,22.8-49.9,50.7-49.9c22.8,0,41.4,14.4,48.2,34.7
		c31.3-19.4,68.5-31.3,107.4-31.3c52.4,0,101.5,20.3,139.5,55.8C6167,430.8,6168.7,462.9,6149.3,483.2z"/>
	<path d="M6607.5,402.9v323.8c0,26.2-21.1,48.2-49,48.2s-44.8-22-44.8-48.2v-10.1c-36.4,31.3-78.6,49.9-129.4,49.9
		c-113.3,0-204.6-91.3-204.6-203.8s91.3-204.6,204.6-204.6c50.7,0,93,19.4,129.4,49v-4.2c0-26.2,16.9-48.2,44.8-48.2
		S6607.5,376.7,6607.5,402.9z M6490,562.7c0-58.3-48.2-105.7-105.7-105.7c-58.3,0-106.5,47.3-106.5,105.7s48.2,104.8,106.5,104.8
		C6441.8,667.6,6490,621.1,6490,562.7z"/>
	<path d="M7035.3,483.2c-19.4,20.3-50.7,22-71.9,2.5c-18.6-17.8-44-27.9-70.2-27.9c-57.5,0-104.8,49-104.8,109.1v159.8
		c0,27.9-22.8,50.7-50.7,50.7s-50.7-22.8-50.7-50.7V402.9c0-27.9,22.8-49.9,50.7-49.9c22.8,0,41.4,14.4,48.2,34.7
		c31.3-19.4,68.5-31.3,107.4-31.3c52.4,0,101.5,20.3,139.5,55.8C7053.1,430.8,7054.8,462.9,7035.3,483.2z"/>
</g>
</svg>
