<svg id="Layer_1" data-name="Layer 1" xmlns="http://www.w3.org/2000/svg" xmlns:xlink="http://www.w3.org/1999/xlink" viewBox="0 0 512 512"><defs><style>.cls-1{fill:url(#Gradiente_sem_nome);}.cls-2{fill:#fff;}</style><linearGradient id="Gradiente_sem_nome" x1="256" y1="-0.11" x2="256" y2="511.89" gradientTransform="matrix(1, 0, 0, -1, 0, 511.89)" gradientUnits="userSpaceOnUse"><stop offset="0" stop-color="#8e54e9"/><stop offset="1" stop-color="#4776e6"/></linearGradient></defs><title>pbx</title><circle class="cls-1" cx="256" cy="256" r="256"/><path class="cls-2" d="M350.2,162.6a124.11,124.11,0,0,0-14.6-12.7c-1.4-1.1-2.9-2.1-4.3-3.1A120.75,120.75,0,0,0,314,136.6c-1.9-.9-3.8-1.8-5.8-2.6s-3.9-1.6-5.9-2.3a51.73,51.73,0,0,0-5.1-1.8c-0.3-.1-0.6-0.2-1-0.3-1.1-.3-2.2-0.7-3.3-1l-3.2-.9c-1.9-.5-3.7-0.9-5.6-1.3l-2.9-.6c-1.5-.3-3-0.6-4.4-0.8-1.9-.3-3.8-0.6-5.8-0.8-1.4-.2-2.8-0.3-4.2-0.4-0.7,0-1.4-.1-2-0.1-1.1-.1-2.1-0.1-3.2-0.1h-1.4a7.08,7.08,0,0,0-1.4-.1h-4.3c-1.8,0-3.5.1-5.3,0.2a49,49,0,0,0-5.4.4c-0.6,0-1.2.1-1.7,0.1-2,.2-4,0.5-5.9.8h-0.4c-2,.3-3.9.6-5.9,1.1a2,2,0,0,0-.7.1c-1.2.2-2.5,0.5-3.7,0.8a23.69,23.69,0,0,0-3.6.9l-1,.3c-1.8.5-3.5,1-5.3,1.6a0.37,0.37,0,0,0-.3.1c-2,.6-3.9,1.3-5.9,2a130.5,130.5,0,0,0-38.8,22.8c-1.5,1.2-2.9,2.5-4.3,3.7-1.6,1.5-3.1,2.9-4.6,4.4s-3,3.1-4.4,4.6c-2.8,3.2-5.5,6.4-8,9.8a60.27,60.27,0,0,0-3.6,5.2c-1.1,1.6-2.2,3.2-3.2,4.9s-2.2,3.7-3.2,5.6c-1,1.7-1.9,3.5-2.8,5.3a80.76,80.76,0,0,0-3.5,8c-0.6,1.5-1.3,3.1-1.8,4.6a130.1,130.1,0,0,0-6.4,25.1c-0.2,1.6-.5,3.2-0.6,4.8a130,130,0,0,0-.9,15.4h0a130,130,0,0,0,.9,15.4c0.1,1.6.4,3.2,0.6,4.8a128.77,128.77,0,0,0,9.2,32.1c0.7,1.7,1.5,3.4,2.3,5.1q1.35,2.85,3,5.7c1,1.9,2.1,3.7,3.2,5.6,1,1.6,2,3.3,3.2,4.9,1.2,1.8,2.4,3.5,3.6,5.2a126.45,126.45,0,0,0,8,9.8c1.4,1.6,2.9,3.1,4.4,4.6s3,3,4.6,4.4c1.4,1.3,2.8,2.5,4.3,3.7a119.82,119.82,0,0,0,18,12.8c1.4,0.9,2.8,1.7,4.3,2.5l5.7,3a122.77,122.77,0,0,0,13,5.4c1.6,0.6,3.3,1.2,5,1.7,2,0.6,4.1,1.2,6.2,1.8a0.9,0.9,0,0,1,.5.1c1.9,0.5,3.9.9,5.8,1.3a1.48,1.48,0,0,0,.7.1c2,0.4,3.9.8,5.9,1.1h0.4c1.9,0.3,3.9.6,5.9,0.8,0.6,0,1.2.1,1.7,0.1,1.8,0.2,3.6.3,5.4,0.4s3.4,0.1,5.2.1a8.6,8.6,0,0,0,1.6.1H257a8.6,8.6,0,0,0,1.6-.1h2.9c1,0,2,0,3.1-.1,2-.1,4.1-0.3,6.2-0.5,1.9-.2,3.9-0.4,5.9-0.8a42.1,42.1,0,0,0,4.9-.9c2.7-.5,5.3-1.1,7.9-1.7,1.6-.4,3.1-0.9,4.6-1.3a133.65,133.65,0,0,0,37.3-17.9c1.5-1,2.9-2,4.3-3.1a124.1,124.1,0,0,0,14.6-12.7A132.66,132.66,0,0,0,350.2,162.6Zm-74.1-27.1a110.44,110.44,0,0,1,11.7,2.6c1.9,0.5,3.8,1.1,5.7,1.7s3.8,1.3,5.6,2a110.93,110.93,0,0,1,16.7,7.9,37.8,37.8,0,0,1,4.3,2.6,124.62,124.62,0,0,1,26.7,22.4,108.73,108.73,0,0,1,7.4,9.1c1.2,1.6,2.3,3.2,3.4,4.8,2.1,3.2,4.2,6.6,6,10a116.2,116.2,0,0,1,7.2,16.1,95.94,95.94,0,0,1,3.2,10.4c0.6,2.2,1.2,4.5,1.6,6.7,0.3,1.3.5,2.6,0.7,3.9a127.85,127.85,0,0,1,1.6,15.3H323.2a166.91,166.91,0,0,0-49.1-113.8l-2.1-2.1A13.61,13.61,0,0,1,276.1,135.5Zm-9.2,232.1c-3.3,3.3-6.8,6.5-10.3,9.5-3.6-3-7.1-6.2-10.4-9.5a156.56,156.56,0,0,1-46-106.4H313A156.92,156.92,0,0,1,266.9,367.6ZM200.1,250.8a156.56,156.56,0,0,1,46-106.4c3.3-3.3,6.8-6.5,10.4-9.5,3.6,3,7,6.2,10.4,9.5a156.56,156.56,0,0,1,46,106.4H200.1Zm-56.8-42.1c0.6-1.5,1.3-3,2-4.5a114.64,114.64,0,0,1,12.8-21.3c1.2-1.6,2.4-3.1,3.6-4.6,2.5-3,5.1-5.9,7.9-8.7,1.4-1.4,2.8-2.8,4.3-4.1a52,52,0,0,1,4.4-3.8c1.5-1.3,3.1-2.5,4.6-3.6s3.2-2.3,4.8-3.4,3.2-2.2,4.9-3.2l5.1-3c1.7-.9,3.5-1.8,5.2-2.7s3.6-1.7,5.4-2.5a123.37,123.37,0,0,1,13.3-4.7c1.2-.4,2.4-0.8,3.7-1.1,1.9-.5,3.9-1,5.9-1.4s4-.8,6-1.1c1.2-.2,2.4-0.4,3.7-0.5-0.8.7-1.6,1.5-2.3,2.2a167.36,167.36,0,0,0-49.1,113.8H134A122.38,122.38,0,0,1,143.3,208.7Zm82.2,165.7a22.59,22.59,0,0,1-3.7-1.1,13.82,13.82,0,0,1-2.7-.8c-1.9-.6-3.8-1.2-5.6-1.9s-3.3-1.3-5-2c-1.3-.5-2.6-1.1-3.9-1.7a123.61,123.61,0,0,1-53.5-48.2c-0.9-1.5-1.8-3.1-2.6-4.6-1.1-2-2.1-4.1-3.1-6.2-0.7-1.5-1.4-3-2-4.5a120.24,120.24,0,0,1-9.3-42.1h55.7a166.91,166.91,0,0,0,49.1,113.8c0.8,0.8,1.6,1.6,2.3,2.2a31.09,31.09,0,0,1-4.4-.6C232.8,376.1,229.1,375.3,225.5,374.4Zm150.2-94c-0.4,2.2-1,4.5-1.6,6.7-0.9,3.5-2,7-3.2,10.4a116.19,116.19,0,0,1-7.2,16.1c-0.8,1.5-1.6,2.9-2.5,4.4a9.25,9.25,0,0,1-.5,1,90.2,90.2,0,0,1-5.5,8.2,123.25,123.25,0,0,1-40.4,35.9c-3.2,1.7-6.5,3.4-9.8,4.8a119.12,119.12,0,0,1-22.8,7.4c-1.9.4-3.9,0.8-5.9,1.2l-2.1.3a12.25,12.25,0,0,1-1.9.2c0.7-.6,1.4-1.3,2.1-2a167.36,167.36,0,0,0,49.1-113.8H378a110.15,110.15,0,0,1-1.6,15.3A26.62,26.62,0,0,1,375.7,280.4Z" transform="translate(0 0)"/></svg>