<svg id="Layer_1" data-name="Layer 1" xmlns="http://www.w3.org/2000/svg" xmlns:xlink="http://www.w3.org/1999/xlink" viewBox="0 0 512 512"><defs><style>.cls-1{fill:url(#Gradiente_sem_nome);}.cls-2{fill:#fff;}</style><linearGradient id="Gradiente_sem_nome" x1="256" y1="-0.11" x2="256" y2="511.89" gradientTransform="matrix(1, 0, 0, -1, 0, 511.89)" gradientUnits="userSpaceOnUse"><stop offset="0" stop-color="#8e54e9"/><stop offset="1" stop-color="#4776e6"/></linearGradient></defs><title>phone</title><circle class="cls-1" cx="256" cy="256" r="256"/><path class="cls-2" d="M377.9,318.2l-40.5-40.5a21.73,21.73,0,0,0-30.6,0l-26.1,26.1L208.9,232,235,205.9a21.61,21.61,0,0,0,0-30.5l-41.2-41.2a21.73,21.73,0,0,0-30.6,0L145,152.4c-13.1,13.1-18.9,29.1-16.8,46.3,1.9,15.7,10.1,31.3,23.8,45L268.3,360c15.6,15.6,34,24.2,51.7,24.2h0c14.6,0,28.3-6,39.6-17.2l18.3-18.3A21.43,21.43,0,0,0,377.9,318.2ZM370,340.8l-18.3,18.3c-9.2,9.2-19.9,13.9-31.7,13.9-14.7,0-30.2-7.4-43.7-20.9L159.9,235.7c-19-19-32.3-50.2-7-75.4L171.2,142a10.38,10.38,0,0,1,14.6,0L227,183.2a10.38,10.38,0,0,1,0,14.6L197,228a5.51,5.51,0,0,0-1.6,4,6,6,0,0,0,1.6,4l79.8,79.8a5.51,5.51,0,0,0,4,1.6,6,6,0,0,0,4-1.6l30.1-30.1a10.21,10.21,0,0,1,7.3-3,10.46,10.46,0,0,1,7.3,3L370,326.2A10.38,10.38,0,0,1,370,340.8Z" transform="translate(0 0)"/></svg>