<svg id="Layer_1" data-name="Layer 1" xmlns="http://www.w3.org/2000/svg" xmlns:xlink="http://www.w3.org/1999/xlink" viewBox="0 0 512 512"><defs><style>.cls-1{fill:url(#Gradiente_sem_nome);}.cls-2{fill:#fff;}</style><linearGradient id="Gradiente_sem_nome" x1="256" y1="-0.11" x2="256" y2="511.89" gradientTransform="matrix(1, 0, 0, -1, 0, 511.89)" gradientUnits="userSpaceOnUse"><stop offset="0" stop-color="#8e54e9"/><stop offset="1" stop-color="#4776e6"/></linearGradient></defs><title>portabilidade</title><circle class="cls-1" cx="256" cy="256" r="256"/><path class="cls-2" d="M175.4,282.1V142.7a5.1,5.1,0,0,0-10.2,0V282.1a38.8,38.8,0,0,0,0,77v10.2a5.1,5.1,0,0,0,10.2,0V359.1A38.8,38.8,0,0,0,175.4,282.1Zm-5.1,67.4h0a28.9,28.9,0,1,1,28.9-28.9A29,29,0,0,1,170.3,349.5Z" transform="translate(0 0)"/><path class="cls-2" d="M380.7,282.5a39,39,0,0,0-34-38.5V142.7a5.1,5.1,0,0,0-10.2,0V244a38.8,38.8,0,0,0,0,77v48.3a5.1,5.1,0,0,0,10.2,0V321A38.87,38.87,0,0,0,380.7,282.5Zm-39,28.9a28.9,28.9,0,1,1,28.9-28.9A28.91,28.91,0,0,1,341.7,311.4Z" transform="translate(0 0)"/><path class="cls-2" d="M261.7,152.9V142.7a5.1,5.1,0,0,0-10.2,0v10.2a38.8,38.8,0,0,0,0,77V369.3a5.1,5.1,0,0,0,10.2,0V230A38.85,38.85,0,0,0,261.7,152.9Zm-5,67.4h0a28.9,28.9,0,1,1,28.9-28.9A29,29,0,0,1,256.7,220.3Z" transform="translate(0 0)"/></svg>